<?xml version="1.0" encoding="UTF-8" standalone="no"?>
<!-- Created with Inkscape (http://www.inkscape.org/) -->

<svg
   width="114.74322mm"
   height="49.413361mm"
   viewBox="0 0 114.74322 49.41336"
   version="1.1"
   id="svg1"
   inkscape:version="1.3 (0e150ed6c4, 2023-07-21)"
   sodipodi:docname="logo.svg"
   xmlns:inkscape="http://www.inkscape.org/namespaces/inkscape"
   xmlns:sodipodi="http://sodipodi.sourceforge.net/DTD/sodipodi-0.dtd"
   xmlns:xlink="http://www.w3.org/1999/xlink"
   xmlns="http://www.w3.org/2000/svg"
   xmlns:svg="http://www.w3.org/2000/svg">
  <sodipodi:namedview
     id="namedview1"
     pagecolor="#ffffff"
     bordercolor="#666666"
     borderopacity="1.0"
     inkscape:showpageshadow="2"
     inkscape:pageopacity="0.0"
     inkscape:pagecheckerboard="0"
     inkscape:deskcolor="#d1d1d1"
     inkscape:document-units="mm"
     showgrid="true"
     inkscape:zoom="1.1706923"
     inkscape:cx="139.66095"
     inkscape:cy="37.157501"
     inkscape:window-width="2560"
     inkscape:window-height="1371"
     inkscape:window-x="0"
     inkscape:window-y="0"
     inkscape:window-maximized="1"
     inkscape:current-layer="g27">
    <inkscape:grid
       id="grid1"
       units="mm"
       originx="-313.57953"
       originy="-456.17383"
       spacingx="4.9999999"
       spacingy="5.0000001"
       empcolor="#0099e5"
       empopacity="0.30196078"
       color="#0099e5"
       opacity="0.14901961"
       empspacing="5"
       dotted="false"
       gridanglex="30"
       gridanglez="30"
       visible="true" />
  </sodipodi:namedview>
  <defs
     id="defs1">
    <linearGradient
       id="linearGradient28"
       inkscape:collect="always">
      <stop
         style="stop-color:#480101;stop-opacity:1;"
         offset="0"
         id="stop28" />
      <stop
         style="stop-color:#ff6000;stop-opacity:1;"
         offset="1"
         id="stop29" />
    </linearGradient>
    <linearGradient
       inkscape:collect="always"
       xlink:href="#linearGradient28"
       id="linearGradient29"
       x1="82.967987"
       y1="135.53966"
       x2="151.90494"
       y2="135.53966"
       gradientUnits="userSpaceOnUse" />
    <linearGradient
       inkscape:collect="always"
       xlink:href="#linearGradient28"
       id="linearGradient30"
       gradientUnits="userSpaceOnUse"
       x1="82.967987"
       y1="135.53966"
       x2="151.90494"
       y2="135.53966" />
  </defs>
  <g
     inkscape:label="Layer 1"
     inkscape:groupmode="layer"
     id="layer1"
     transform="translate(-82.967917,-120.69599)">
    <g
       id="g27"
       style="fill:url(#linearGradient29)"
       transform="matrix(1.6644643,0,0,1.6644643,-55.129219,-80.198177)">
      <path
         id="path22"
         style="opacity:0.99;fill:url(#linearGradient30);stroke:none;stroke-width:0.322142;stroke-linecap:butt;stroke-linejoin:miter;stroke-dasharray:none;stroke-opacity:1"
         d="m 94.920304,120.69599 c 0.799489,1.83458 1.006516,6.32974 -0.109554,8.4522 -0.594117,1.06107 -4.128155,-1.22118 -5.092712,-4.69791 -2.089329,3.02187 1.839662,7.16014 0.974101,8.78707 -1.474174,1.45196 -3.592514,-1.99306 -3.868498,-3.1657 -2.079324,3.68338 -1.785643,5.71893 -0.960665,9.59631 -0.774184,-0.89942 -1.98376,-2.14967 -1.843815,-3.48919 -3.0578,5.5847 1.307735,12.54888 3.541903,13.83223 h 2.085144 c -1.489475,-1.85792 -2.872724,-4.29485 -2.139405,-9.1891 0.213673,1.44502 1.811108,2.26205 2.542998,2.79569 -1.18089,-1.63888 -1.531518,-3.93216 -1.374593,-6.94738 0.547985,1.36717 2.538556,2.78461 3.505212,3.24115 -0.135228,-2.12223 0.258749,-2.89397 1.19941,-5.21674 0.102077,1.63376 0.937576,3.74913 1.620056,5.30562 1.070176,-1.92333 0.789142,-4.00037 0.935343,-7.09827 1.2569,2.76938 2.133603,3.10497 2.253093,8.08116 0.545535,-0.84665 0.849364,-1.14962 1.080554,-2.8882 0.969464,1.3831 1.005834,2.13978 1.207674,3.73621 0.92324,-0.43351 0.87558,-0.47094 1.58544,-1.38855 0.34746,4.02566 0.31537,6.88129 -2.213821,9.56841 h 2.209171 c 4.17725,-1.66431 5.55153,-9.80533 4.08605,-12.4101 -0.72985,1.04235 -0.65023,1.05141 -3.23753,2.21692 2.3304,-5.02076 0.34271,-7.39586 -1.54254,-12.3517 0.83935,2.62078 -2.194598,7.77875 -2.294948,8.16694 2.077408,-8.41472 -3.909969,-14.6916 -4.148068,-14.93707 z" />
      <path
         style="font-size:35.2778px;line-height:1.25;font-family:'Linux Libertine O';-inkscape-font-specification:'Linux Libertine O';stroke-width:0.264583"
         d="m 118.4263,138.63573 c 2.99861,0 3.10444,0.81139 3.21028,2.39889 0.21166,0.21166 0.9525,0.21166 1.16417,0 -0.0353,-0.88195 -0.0706,-1.86973 -0.0706,-3.10445 0,-1.16417 0.0353,-2.11667 0.0706,-3.03389 -0.21167,-0.21167 -0.95251,-0.21167 -1.16417,0 -0.10584,1.94028 -0.21167,2.39889 -3.21028,2.39889 h -3.28084 v -6.35 c 0,-1.90501 0.42334,-2.25778 1.97556,-2.25778 h 1.5875 c 3.73945,0 4.62139,1.41111 5.3975,3.84528 0.42334,0 0.81139,-0.0706 1.09362,-0.17639 -0.21167,-1.44639 -0.74084,-4.83306 -0.77612,-5.11528 -0.0353,-0.0706 -0.0705,-0.10584 -0.14111,-0.10584 -0.635,0.14111 -0.77611,0.14111 -1.65805,0.14111 h -8.99584 c -1.12889,0 -3.13973,-0.0353 -4.55084,-0.0705 -0.21167,0.21167 -0.21167,0.9525 0,1.16417 2.46945,0.10583 3.06917,0.28222 3.06917,3.21028 v 14.14639 c 0,2.92806 -0.59972,3.10445 -3.06917,3.21028 -0.21167,0.21167 -0.21167,0.95251 0,1.16417 1.23472,-0.0353 2.99861,-0.0705 4.58611,-0.0705 1.58751,0 3.31612,0.0353 4.55084,0.0705 0.21167,-0.21166 0.21167,-0.9525 0,-1.16417 -2.46944,-0.10583 -3.06917,-0.28222 -3.06917,-3.21028 v -7.09083 z m 10.30114,-9.73668 c 0,0.91723 0.84666,1.83445 1.69333,1.83445 0.98778,0 1.83445,-0.91722 1.83445,-1.69334 0,-0.84666 -0.74084,-1.83444 -1.69334,-1.83444 -0.84666,0 -1.83444,0.84667 -1.83444,1.69333 z m 3.21028,16.82751 v -7.02028 c 0,-1.76389 0.14111,-4.02167 0.14111,-4.02167 0,-0.14111 -0.17639,-0.24694 -0.45861,-0.24694 -1.02306,0.38805 -2.39889,0.70555 -4.83306,1.02305 -0.0706,0.21167 0,0.77612 0.0705,0.98778 1.905,0.21167 2.29306,0.38806 2.29306,2.39889 v 6.87917 c 0,2.92806 -0.38806,3.0339 -2.54,3.21028 -0.21167,0.21167 -0.21167,0.95251 0,1.16417 1.16417,-0.0353 2.54,-0.0705 3.95111,-0.0705 1.41111,0 2.75167,0.0353 3.91584,0.0705 0.21167,-0.21166 0.21167,-0.9525 0,-1.16417 -2.15195,-0.14111 -2.54,-0.28222 -2.54,-3.21028 z m 9.38389,-8.32556 c -0.0706,-1.41111 -0.14111,-2.29305 -0.28222,-2.68111 -0.10584,-0.14111 -0.14111,-0.28222 -0.42334,-0.28222 -0.98777,0.38805 -1.905,0.70555 -4.33917,1.02305 -0.0705,0.21167 0,0.77612 0.0706,0.98778 1.905,0.17639 2.29306,0.35278 2.29306,2.39889 v 6.87917 c 0,2.92806 -0.42334,3.06917 -2.61056,3.21028 -0.21167,0.21167 -0.21167,0.95251 0,1.16417 1.23472,-0.0353 2.61056,-0.0705 4.02167,-0.0705 1.41111,0 3.03389,0.0353 4.26861,0.0705 0.21167,-0.21166 0.21167,-0.9525 0,-1.16417 -2.46944,-0.17638 -2.89278,-0.28222 -2.89278,-3.21028 v -4.90361 c 0,-0.91722 0.42334,-1.72861 0.84667,-2.36361 0.38806,-0.56445 1.19945,-1.72861 1.62278,-1.72861 0.3175,0 0.635,0.10583 0.88194,0.45861 0.28223,0.35277 0.67028,0.81139 1.30528,0.81139 0.84667,0 1.65806,-0.88195 1.65806,-1.76389 0,-0.67028 -0.635,-1.69334 -2.11667,-1.69334 -1.65806,0 -3.10445,1.55222 -3.91583,2.92806 -0.21167,0.38806 -0.38806,0.10583 -0.38806,-0.0706 z m 6.84388,11.11251 c 0,1.02306 0.84667,1.86972 1.86973,1.86972 1.02305,0 1.86972,-0.84666 1.86972,-1.86972 0,-1.02306 -0.84667,-1.86972 -1.86972,-1.86972 -1.02306,0 -1.86973,0.84666 -1.86973,1.86972 z"
         id="text27"
         aria-label="Fir." />
    </g>
  </g>
</svg>
